<?xml version="1.0" standalone="no"?>
<!DOCTYPE svg PUBLIC "-//W3C//DTD SVG 20010904//EN"
 "http://www.w3.org/TR/2001/REC-SVG-20010904/DTD/svg10.dtd">
<svg version="1.0" xmlns="http://www.w3.org/2000/svg"
 width="1200.000000pt" height="1200.000000pt" viewBox="0 0 1200.000000 1200.000000"
 preserveAspectRatio="xMidYMid meet">

<g transform="translate(0.000000,1200.000000) scale(0.100000,-0.100000)"
fill="#000000" stroke="none">
<path d="M7015 10954 c-164 -83 -226 -136 -654 -556 -295 -290 -305 -299 -340
-296 -32 3 -40 10 -78 68 -24 36 -48 71 -54 78 -6 7 -19 32 -30 55 -32 69
-120 231 -135 248 -8 8 -14 20 -14 26 0 10 -22 40 -90 123 -53 65 -70 89 -70
98 0 6 -8 17 -19 24 -10 7 -27 29 -37 48 -34 61 -56 90 -70 90 -17 0 -43 -86
-50 -170 -11 -114 26 -268 108 -450 11 -25 37 -92 59 -150 35 -98 51 -140 98
-257 10 -27 33 -79 51 -117 22 -48 30 -76 25 -95 -4 -14 -43 -66 -89 -116
-158 -174 -498 -586 -648 -787 -26 -35 -60 -77 -75 -95 -16 -18 -39 -49 -53
-69 -14 -20 -39 -53 -56 -73 -17 -20 -46 -58 -65 -86 -19 -27 -66 -92 -106
-145 -40 -52 -81 -106 -91 -120 -11 -14 -45 -63 -77 -109 -32 -46 -67 -93 -77
-103 -10 -10 -18 -23 -18 -30 0 -6 -12 -27 -27 -47 -16 -19 -50 -67 -76 -106
-26 -38 -74 -108 -105 -154 -92 -134 -150 -223 -173 -266 -12 -22 -39 -65 -59
-95 -60 -88 -113 -170 -141 -219 -54 -96 -72 -127 -90 -150 -11 -13 -19 -29
-19 -36 0 -6 -13 -29 -30 -51 -16 -21 -30 -42 -30 -47 0 -4 -15 -31 -33 -60
-35 -53 -118 -201 -154 -272 -19 -37 -34 -65 -97 -177 -68 -124 -98 -181 -196
-378 -59 -118 -133 -271 -165 -340 -31 -69 -68 -148 -81 -177 -13 -28 -24 -55
-24 -58 0 -3 -11 -30 -24 -58 -66 -139 -146 -332 -146 -350 0 -8 -11 -35 -25
-61 -14 -26 -25 -53 -25 -59 0 -19 -67 -154 -94 -190 -14 -19 -63 -152 -119
-327 -120 -370 -137 -432 -137 -506 0 -32 -12 -104 -26 -159 -15 -55 -32 -134
-39 -175 -6 -41 -19 -89 -28 -107 -24 -45 -21 -66 13 -96 22 -20 30 -36 30
-60 0 -41 -22 -122 -44 -165 -9 -18 -22 -58 -27 -89 -6 -32 -22 -78 -35 -103
-27 -51 -30 -73 -10 -89 10 -8 20 -5 42 14 166 146 190 164 221 170 18 3 38 3
43 0 20 -12 9 -64 -29 -146 l-40 -84 25 -20 c15 -13 27 -38 33 -68 5 -27 19
-59 31 -72 14 -15 24 -41 27 -69 3 -25 8 -46 12 -46 8 1 57 114 69 160 5 19
26 78 46 130 66 171 74 195 81 230 4 19 11 40 15 45 4 6 17 35 28 65 11 30 34
91 52 135 17 44 49 129 70 189 22 60 44 114 48 120 5 6 12 24 16 41 4 16 18
54 32 83 13 29 24 58 24 65 0 7 11 30 25 52 13 22 25 47 25 55 0 29 82 205
118 255 32 45 66 115 122 255 34 85 82 196 145 335 8 17 37 82 66 145 28 63
58 146 65 184 7 38 20 78 27 90 8 12 51 102 96 201 95 207 383 785 461 925 29
52 88 163 130 245 43 83 115 215 161 295 45 80 93 165 106 190 43 80 73 132
93 158 11 13 20 28 20 33 0 8 178 312 263 449 22 36 52 84 66 108 33 55 82
132 165 260 37 57 70 111 74 120 5 15 90 145 160 247 15 22 32 47 37 56 6 9
30 47 55 85 25 38 50 76 55 85 16 26 127 189 170 249 60 84 132 189 172 250
53 82 83 110 115 110 31 0 49 -22 71 -85 17 -48 73 -173 87 -195 6 -8 15 -27
21 -42 6 -14 27 -59 48 -100 21 -40 49 -93 62 -118 12 -25 26 -52 31 -60 4 -8
15 -31 24 -50 20 -43 28 -58 74 -140 36 -64 83 -151 193 -360 30 -58 71 -132
90 -165 20 -33 54 -94 77 -135 24 -41 52 -88 65 -105 12 -16 37 -59 56 -95 18
-36 52 -94 75 -130 22 -36 61 -98 85 -138 24 -40 51 -84 59 -96 15 -23 62 -98
115 -187 27 -44 70 -110 129 -194 11 -16 62 -93 113 -170 50 -77 103 -153 116
-170 13 -16 36 -50 51 -75 30 -51 44 -70 136 -190 36 -47 85 -114 109 -150 25
-36 64 -90 88 -120 23 -30 58 -75 78 -100 19 -25 67 -87 107 -138 40 -51 87
-110 103 -131 17 -21 46 -60 65 -86 70 -96 54 -88 191 -96 115 -7 243 -17 494
-39 55 -5 152 -14 215 -19 63 -6 130 -15 148 -20 39 -12 62 -5 62 18 0 9 -39
59 -87 112 -143 155 -174 190 -240 269 -35 41 -74 86 -87 100 -12 14 -65 77
-117 140 -51 63 -121 147 -154 185 -75 86 -195 235 -295 364 -41 54 -102 133
-135 175 -33 42 -70 90 -82 107 -13 17 -42 54 -66 83 -23 28 -51 62 -60 76
-49 71 -231 319 -329 449 -35 46 -70 93 -78 106 -8 12 -23 33 -33 46 -10 13
-38 53 -62 89 -24 36 -66 96 -92 134 -26 38 -64 93 -83 121 -19 29 -54 80 -77
115 -24 34 -43 64 -43 68 0 4 -16 27 -35 51 -19 24 -35 48 -35 52 0 5 -21 36
-46 69 -25 33 -71 100 -102 148 -75 116 -74 115 -93 143 -9 13 -42 67 -74 119
-51 85 -104 168 -161 254 -10 15 -32 50 -49 77 -53 85 -126 203 -138 224 -7
11 -24 39 -39 63 -16 24 -28 45 -28 46 0 2 -18 33 -40 67 -22 35 -56 93 -77
129 -20 36 -47 81 -60 100 -14 21 -23 50 -23 72 0 36 8 50 83 132 9 11 17 23
17 27 0 4 26 41 58 81 32 40 73 95 92 121 19 27 46 63 60 81 14 18 48 64 75
101 28 37 63 81 78 99 16 17 36 42 45 56 9 14 49 66 88 115 39 50 84 110 100
135 16 25 44 65 62 88 33 44 119 216 143 285 16 45 5 71 -32 74 -13 2 -73 -22
-134 -53z"/>
<path d="M9809 4796 c-2 -3 -215 -6 -472 -7 -464 -3 -467 -3 -467 -23 0 -32
760 -782 847 -836 16 -10 46 -35 68 -56 22 -20 74 -65 115 -98 41 -34 84 -69
95 -79 30 -26 133 -107 188 -147 27 -19 74 -55 105 -80 31 -25 82 -63 112 -84
52 -37 56 -39 95 -28 23 6 52 8 66 5 13 -4 64 -42 112 -85 48 -44 97 -87 109
-96 11 -9 36 -34 56 -54 19 -21 41 -38 49 -38 20 0 16 59 -11 147 -37 117 -41
149 -22 178 l16 24 51 -21 c38 -16 61 -35 91 -75 l40 -53 26 20 c27 22 54 19
84 -7 11 -10 26 -13 44 -9 14 4 50 2 80 -5 30 -7 56 -10 59 -7 11 11 -9 39
-48 68 -92 68 -370 333 -822 785 -378 377 -568 573 -608 627 -24 34 -46 46
-58 34z"/>
<path d="M4778 3668 c-55 -29 -67 -40 -90 -87 -44 -85 -33 -168 30 -234 39
-42 87 -63 207 -93 128 -32 165 -57 150 -99 -16 -46 -56 -68 -123 -68 -75 -1
-108 19 -136 85 l-20 49 -74 -3 c-40 -1 -77 -5 -83 -8 -12 -8 4 -87 27 -134
27 -53 85 -105 141 -126 66 -25 205 -27 279 -5 110 32 170 120 162 238 -8 124
-69 176 -262 224 -133 33 -155 45 -156 85 0 41 105 69 166 43 26 -11 40 -25
51 -55 16 -40 17 -40 68 -40 29 0 67 3 84 6 27 6 31 11 31 38 0 47 -43 130
-83 161 -51 38 -117 55 -218 55 -79 0 -93 -3 -151 -32z"/>
<path d="M5548 3692 l-158 -3 0 -374 0 -375 85 0 84 0 3 148 3 147 43 -2 c24
-1 54 -9 67 -17 13 -8 63 -74 111 -146 l88 -130 103 0 104 0 -12 23 c-32 59
-159 245 -183 266 -32 30 -33 37 -1 45 35 9 90 60 109 101 36 75 19 192 -38
253 -50 56 -132 69 -408 64z m264 -169 c29 -30 30 -86 0 -115 -20 -20 -32 -22
-134 -23 l-113 0 -3 60 c-6 110 -8 107 118 103 97 -3 112 -5 132 -25z"/>
<path d="M6963 3692 l-82 -3 -15 -67 c-8 -37 -29 -136 -48 -219 -18 -84 -35
-153 -38 -153 -3 0 -30 99 -60 220 l-54 220 -101 0 -100 0 -49 -188 c-68 -257
-67 -254 -71 -250 -3 2 -23 89 -45 193 -22 105 -43 202 -47 218 l-5 27 -90 0
c-81 0 -90 -2 -86 -17 3 -10 42 -179 88 -375 l83 -358 93 0 c80 0 93 2 98 18
3 9 31 114 62 232 31 118 59 221 63 228 4 6 36 -98 71 -233 l65 -245 93 0 c50
0 92 3 92 6 0 7 169 715 175 731 6 17 0 18 -92 15z"/>
<path d="M7360 3691 c-87 -27 -174 -104 -213 -189 -19 -41 -22 -65 -22 -182 0
-125 2 -139 27 -192 31 -66 90 -127 156 -159 40 -20 62 -24 152 -24 95 0 110
3 155 27 65 34 98 70 128 138 46 102 48 96 -35 120 -40 12 -78 23 -84 25 -7 2
-17 -15 -23 -40 -15 -59 -67 -111 -121 -120 -32 -5 -50 -2 -88 17 -69 34 -96
93 -96 208 0 139 48 212 149 224 61 8 122 -24 143 -74 12 -28 23 -40 37 -40
27 1 145 26 152 33 9 9 -46 120 -75 151 -15 16 -54 41 -87 57 -52 25 -71 29
-145 28 -47 0 -96 -4 -110 -8z"/>
</g>
</svg>
